<mxfile host="app.diagrams.net" modified="2022-07-28T17:54:55.294Z" agent="5.0 (Macintosh; Intel Mac OS X 10_15_7) AppleWebKit/605.1.15 (KHTML, like Gecko) Version/15.6 Safari/605.1.15" etag="UgiShLL431ctvgDw2uKG" version="20.2.0" type="github">
  <diagram id="C5RBs43oDa-KdzZeNtuy" name="Page-1">
    <mxGraphModel dx="770" dy="454" grid="1" gridSize="10" guides="1" tooltips="1" connect="1" arrows="1" fold="1" page="1" pageScale="1" pageWidth="827" pageHeight="1169" math="0" shadow="0">
      <root>
        <mxCell id="WIyWlLk6GJQsqaUBKTNV-0" />
        <mxCell id="WIyWlLk6GJQsqaUBKTNV-1" parent="WIyWlLk6GJQsqaUBKTNV-0" />
        <mxCell id="SuPhJJDF08uRvSXy7zzl-4" value="" style="edgeStyle=orthogonalEdgeStyle;rounded=0;orthogonalLoop=1;jettySize=auto;html=1;entryX=0.5;entryY=0;entryDx=0;entryDy=0;" parent="WIyWlLk6GJQsqaUBKTNV-1" source="WIyWlLk6GJQsqaUBKTNV-3" target="SuPhJJDF08uRvSXy7zzl-0" edge="1">
          <mxGeometry relative="1" as="geometry" />
        </mxCell>
        <mxCell id="WIyWlLk6GJQsqaUBKTNV-3" value="Get user&#39;s choice" style="rounded=1;whiteSpace=wrap;html=1;fontSize=12;glass=0;strokeWidth=1;shadow=0;" parent="WIyWlLk6GJQsqaUBKTNV-1" vertex="1">
          <mxGeometry x="158.75" y="100" width="120" height="40" as="geometry" />
        </mxCell>
        <mxCell id="SuPhJJDF08uRvSXy7zzl-13" value="" style="edgeStyle=orthogonalEdgeStyle;rounded=0;orthogonalLoop=1;jettySize=auto;html=1;" parent="WIyWlLk6GJQsqaUBKTNV-1" target="WIyWlLk6GJQsqaUBKTNV-10" edge="1">
          <mxGeometry relative="1" as="geometry">
            <mxPoint x="220" y="390" as="sourcePoint" />
          </mxGeometry>
        </mxCell>
        <mxCell id="WIyWlLk6GJQsqaUBKTNV-7" value="It&#39;s a draw" style="rounded=1;whiteSpace=wrap;html=1;fontSize=12;glass=0;strokeWidth=1;shadow=0;" parent="WIyWlLk6GJQsqaUBKTNV-1" vertex="1">
          <mxGeometry x="400" y="1340" width="120" height="40" as="geometry" />
        </mxCell>
        <mxCell id="WIyWlLk6GJQsqaUBKTNV-9" value="Yes" style="edgeStyle=orthogonalEdgeStyle;rounded=0;html=1;jettySize=auto;orthogonalLoop=1;fontSize=11;endArrow=block;endFill=0;endSize=8;strokeWidth=1;shadow=0;labelBackgroundColor=none;" parent="WIyWlLk6GJQsqaUBKTNV-1" source="WIyWlLk6GJQsqaUBKTNV-10" target="WIyWlLk6GJQsqaUBKTNV-12" edge="1">
          <mxGeometry y="10" relative="1" as="geometry">
            <mxPoint as="offset" />
          </mxGeometry>
        </mxCell>
        <mxCell id="KWvbrRZpJoL5nGQ_QKI8-44" value="" style="edgeStyle=orthogonalEdgeStyle;rounded=0;orthogonalLoop=1;jettySize=auto;html=1;" parent="WIyWlLk6GJQsqaUBKTNV-1" source="WIyWlLk6GJQsqaUBKTNV-10" target="KWvbrRZpJoL5nGQ_QKI8-2" edge="1">
          <mxGeometry relative="1" as="geometry" />
        </mxCell>
        <mxCell id="WIyWlLk6GJQsqaUBKTNV-10" value="user&#39;s choice &amp;lt; 0 or&amp;nbsp;&lt;br&gt;user&#39;s choice &amp;gt; 2" style="rhombus;whiteSpace=wrap;html=1;shadow=0;fontFamily=Helvetica;fontSize=12;align=center;strokeWidth=1;spacing=6;spacingTop=-4;" parent="WIyWlLk6GJQsqaUBKTNV-1" vertex="1">
          <mxGeometry x="145" y="425" width="150" height="125" as="geometry" />
        </mxCell>
        <mxCell id="WIyWlLk6GJQsqaUBKTNV-12" value="Invalid input" style="rounded=1;whiteSpace=wrap;html=1;fontSize=12;glass=0;strokeWidth=1;shadow=0;" parent="WIyWlLk6GJQsqaUBKTNV-1" vertex="1">
          <mxGeometry x="400" y="467.5" width="120" height="40" as="geometry" />
        </mxCell>
        <mxCell id="SuPhJJDF08uRvSXy7zzl-7" value="" style="edgeStyle=orthogonalEdgeStyle;rounded=0;orthogonalLoop=1;jettySize=auto;html=1;" parent="WIyWlLk6GJQsqaUBKTNV-1" source="SuPhJJDF08uRvSXy7zzl-0" target="SuPhJJDF08uRvSXy7zzl-1" edge="1">
          <mxGeometry relative="1" as="geometry" />
        </mxCell>
        <mxCell id="SuPhJJDF08uRvSXy7zzl-0" value="Display user&#39;s choice" style="rounded=1;whiteSpace=wrap;html=1;fontSize=12;glass=0;strokeWidth=1;shadow=0;" parent="WIyWlLk6GJQsqaUBKTNV-1" vertex="1">
          <mxGeometry x="158.75" y="180" width="120" height="40" as="geometry" />
        </mxCell>
        <mxCell id="SuPhJJDF08uRvSXy7zzl-5" value="" style="edgeStyle=orthogonalEdgeStyle;rounded=0;orthogonalLoop=1;jettySize=auto;html=1;" parent="WIyWlLk6GJQsqaUBKTNV-1" source="SuPhJJDF08uRvSXy7zzl-1" target="SuPhJJDF08uRvSXy7zzl-2" edge="1">
          <mxGeometry relative="1" as="geometry" />
        </mxCell>
        <mxCell id="SuPhJJDF08uRvSXy7zzl-1" value="Get computer&#39;s choice" style="rounded=1;whiteSpace=wrap;html=1;fontSize=12;glass=0;strokeWidth=1;shadow=0;" parent="WIyWlLk6GJQsqaUBKTNV-1" vertex="1">
          <mxGeometry x="158.75" y="260" width="120" height="40" as="geometry" />
        </mxCell>
        <mxCell id="SuPhJJDF08uRvSXy7zzl-2" value="Get computer&#39;s choice" style="rounded=1;whiteSpace=wrap;html=1;fontSize=12;glass=0;strokeWidth=1;shadow=0;" parent="WIyWlLk6GJQsqaUBKTNV-1" vertex="1">
          <mxGeometry x="158.75" y="350" width="120" height="40" as="geometry" />
        </mxCell>
        <mxCell id="SuPhJJDF08uRvSXy7zzl-15" value="Consider: Rock as 0&lt;br&gt;&amp;nbsp; &amp;nbsp; &amp;nbsp; &amp;nbsp; &amp;nbsp; &amp;nbsp; &amp;nbsp; &amp;nbsp; &amp;nbsp; Paper as 1&lt;br&gt;&amp;nbsp; &amp;nbsp; &amp;nbsp; &amp;nbsp; &amp;nbsp; &amp;nbsp; &amp;nbsp; &amp;nbsp; &amp;nbsp; &amp;nbsp; &amp;nbsp; Scissors as 2" style="text;html=1;align=center;verticalAlign=middle;resizable=0;points=[];autosize=1;strokeColor=none;fillColor=none;" parent="WIyWlLk6GJQsqaUBKTNV-1" vertex="1">
          <mxGeometry x="400" y="90" width="170" height="60" as="geometry" />
        </mxCell>
        <mxCell id="KWvbrRZpJoL5nGQ_QKI8-4" value="" style="edgeStyle=orthogonalEdgeStyle;rounded=0;orthogonalLoop=1;jettySize=auto;html=1;" parent="WIyWlLk6GJQsqaUBKTNV-1" source="KWvbrRZpJoL5nGQ_QKI8-2" edge="1">
          <mxGeometry relative="1" as="geometry">
            <mxPoint x="220" y="800" as="targetPoint" />
            <Array as="points">
              <mxPoint x="220" y="780" />
              <mxPoint x="220" y="780" />
            </Array>
          </mxGeometry>
        </mxCell>
        <mxCell id="KWvbrRZpJoL5nGQ_QKI8-6" value="" style="edgeStyle=orthogonalEdgeStyle;rounded=0;orthogonalLoop=1;jettySize=auto;html=1;" parent="WIyWlLk6GJQsqaUBKTNV-1" source="KWvbrRZpJoL5nGQ_QKI8-2" edge="1">
          <mxGeometry relative="1" as="geometry">
            <mxPoint x="410" y="672.5" as="targetPoint" />
          </mxGeometry>
        </mxCell>
        <mxCell id="KWvbrRZpJoL5nGQ_QKI8-2" value="user&#39;s choice == 0 and&amp;nbsp;&lt;br&gt;computer&#39;s choice == 2" style="rhombus;whiteSpace=wrap;html=1;shadow=0;fontFamily=Helvetica;fontSize=12;align=center;strokeWidth=1;spacing=6;spacingTop=-4;" parent="WIyWlLk6GJQsqaUBKTNV-1" vertex="1">
          <mxGeometry x="145" y="610" width="150" height="125" as="geometry" />
        </mxCell>
        <mxCell id="KWvbrRZpJoL5nGQ_QKI8-7" value="user wins!" style="rounded=1;whiteSpace=wrap;html=1;fontSize=12;glass=0;strokeWidth=1;shadow=0;" parent="WIyWlLk6GJQsqaUBKTNV-1" vertex="1">
          <mxGeometry x="410" y="652.5" width="120" height="40" as="geometry" />
        </mxCell>
        <mxCell id="KWvbrRZpJoL5nGQ_QKI8-8" value="Yes" style="text;html=1;align=center;verticalAlign=middle;resizable=0;points=[];autosize=1;strokeColor=none;fillColor=none;" parent="WIyWlLk6GJQsqaUBKTNV-1" vertex="1">
          <mxGeometry x="300" y="650" width="40" height="30" as="geometry" />
        </mxCell>
        <mxCell id="KWvbrRZpJoL5nGQ_QKI8-9" value="No" style="text;html=1;align=center;verticalAlign=middle;resizable=0;points=[];autosize=1;strokeColor=none;fillColor=none;" parent="WIyWlLk6GJQsqaUBKTNV-1" vertex="1">
          <mxGeometry x="220" y="745" width="40" height="30" as="geometry" />
        </mxCell>
        <mxCell id="KWvbrRZpJoL5nGQ_QKI8-36" value="" style="edgeStyle=orthogonalEdgeStyle;rounded=0;orthogonalLoop=1;jettySize=auto;html=1;" parent="WIyWlLk6GJQsqaUBKTNV-1" source="KWvbrRZpJoL5nGQ_QKI8-10" target="KWvbrRZpJoL5nGQ_QKI8-30" edge="1">
          <mxGeometry relative="1" as="geometry" />
        </mxCell>
        <mxCell id="KWvbrRZpJoL5nGQ_QKI8-40" value="" style="edgeStyle=orthogonalEdgeStyle;rounded=0;orthogonalLoop=1;jettySize=auto;html=1;" parent="WIyWlLk6GJQsqaUBKTNV-1" source="KWvbrRZpJoL5nGQ_QKI8-10" target="KWvbrRZpJoL5nGQ_QKI8-11" edge="1">
          <mxGeometry relative="1" as="geometry" />
        </mxCell>
        <mxCell id="KWvbrRZpJoL5nGQ_QKI8-10" value="computer&#39;s choice == 0 and&amp;nbsp;&lt;br&gt;user&#39;s choice == 2" style="rhombus;whiteSpace=wrap;html=1;shadow=0;fontFamily=Helvetica;fontSize=12;align=center;strokeWidth=1;spacing=6;spacingTop=-4;" parent="WIyWlLk6GJQsqaUBKTNV-1" vertex="1">
          <mxGeometry x="127.5" y="800" width="182.5" height="125" as="geometry" />
        </mxCell>
        <mxCell id="KWvbrRZpJoL5nGQ_QKI8-15" value="" style="edgeStyle=orthogonalEdgeStyle;rounded=0;orthogonalLoop=1;jettySize=auto;html=1;" parent="WIyWlLk6GJQsqaUBKTNV-1" source="KWvbrRZpJoL5nGQ_QKI8-11" target="KWvbrRZpJoL5nGQ_QKI8-12" edge="1">
          <mxGeometry relative="1" as="geometry" />
        </mxCell>
        <mxCell id="KWvbrRZpJoL5nGQ_QKI8-11" value="user&#39;s choice &lt;br&gt;&amp;gt;&amp;nbsp;&lt;br&gt;computer&#39;s choice&amp;nbsp;" style="rhombus;whiteSpace=wrap;html=1;shadow=0;fontFamily=Helvetica;fontSize=12;align=center;strokeWidth=1;spacing=6;spacingTop=-4;" parent="WIyWlLk6GJQsqaUBKTNV-1" vertex="1">
          <mxGeometry x="143.75" y="960" width="150" height="125" as="geometry" />
        </mxCell>
        <mxCell id="KWvbrRZpJoL5nGQ_QKI8-39" value="" style="edgeStyle=orthogonalEdgeStyle;rounded=0;orthogonalLoop=1;jettySize=auto;html=1;" parent="WIyWlLk6GJQsqaUBKTNV-1" source="KWvbrRZpJoL5nGQ_QKI8-12" target="KWvbrRZpJoL5nGQ_QKI8-37" edge="1">
          <mxGeometry relative="1" as="geometry" />
        </mxCell>
        <mxCell id="KWvbrRZpJoL5nGQ_QKI8-12" value="computer&#39;s choice &lt;br&gt;&amp;gt;&amp;nbsp;&lt;br&gt;user&#39;s choice" style="rhombus;whiteSpace=wrap;html=1;shadow=0;fontFamily=Helvetica;fontSize=12;align=center;strokeWidth=1;spacing=6;spacingTop=-4;" parent="WIyWlLk6GJQsqaUBKTNV-1" vertex="1">
          <mxGeometry x="143.75" y="1130" width="150" height="130" as="geometry" />
        </mxCell>
        <mxCell id="KWvbrRZpJoL5nGQ_QKI8-17" value="No" style="text;html=1;align=center;verticalAlign=middle;resizable=0;points=[];autosize=1;strokeColor=none;fillColor=none;" parent="WIyWlLk6GJQsqaUBKTNV-1" vertex="1">
          <mxGeometry x="240" y="925" width="40" height="30" as="geometry" />
        </mxCell>
        <mxCell id="KWvbrRZpJoL5nGQ_QKI8-19" value="No" style="text;html=1;align=center;verticalAlign=middle;resizable=0;points=[];autosize=1;strokeColor=none;fillColor=none;" parent="WIyWlLk6GJQsqaUBKTNV-1" vertex="1">
          <mxGeometry x="230" y="1085" width="40" height="30" as="geometry" />
        </mxCell>
        <mxCell id="KWvbrRZpJoL5nGQ_QKI8-20" value="" style="edgeStyle=orthogonalEdgeStyle;rounded=0;orthogonalLoop=1;jettySize=auto;html=1;" parent="WIyWlLk6GJQsqaUBKTNV-1" edge="1">
          <mxGeometry relative="1" as="geometry">
            <mxPoint x="295" y="1194.5" as="sourcePoint" />
            <mxPoint x="410" y="1194.5" as="targetPoint" />
          </mxGeometry>
        </mxCell>
        <mxCell id="KWvbrRZpJoL5nGQ_QKI8-21" value="" style="edgeStyle=orthogonalEdgeStyle;rounded=0;orthogonalLoop=1;jettySize=auto;html=1;" parent="WIyWlLk6GJQsqaUBKTNV-1" edge="1">
          <mxGeometry relative="1" as="geometry">
            <mxPoint x="295" y="1022" as="sourcePoint" />
            <mxPoint x="410" y="1022" as="targetPoint" />
          </mxGeometry>
        </mxCell>
        <mxCell id="KWvbrRZpJoL5nGQ_QKI8-25" value="Yes" style="text;html=1;align=center;verticalAlign=middle;resizable=0;points=[];autosize=1;strokeColor=none;fillColor=none;" parent="WIyWlLk6GJQsqaUBKTNV-1" vertex="1">
          <mxGeometry x="290" y="1169" width="40" height="30" as="geometry" />
        </mxCell>
        <mxCell id="KWvbrRZpJoL5nGQ_QKI8-26" value="Yes" style="text;html=1;align=center;verticalAlign=middle;resizable=0;points=[];autosize=1;strokeColor=none;fillColor=none;" parent="WIyWlLk6GJQsqaUBKTNV-1" vertex="1">
          <mxGeometry x="300" y="1000" width="40" height="30" as="geometry" />
        </mxCell>
        <mxCell id="KWvbrRZpJoL5nGQ_QKI8-27" value="Yes" style="text;html=1;align=center;verticalAlign=middle;resizable=0;points=[];autosize=1;strokeColor=none;fillColor=none;" parent="WIyWlLk6GJQsqaUBKTNV-1" vertex="1">
          <mxGeometry x="310" y="830" width="40" height="30" as="geometry" />
        </mxCell>
        <mxCell id="KWvbrRZpJoL5nGQ_QKI8-28" value="computer wins!" style="rounded=1;whiteSpace=wrap;html=1;fontSize=12;glass=0;strokeWidth=1;shadow=0;" parent="WIyWlLk6GJQsqaUBKTNV-1" vertex="1">
          <mxGeometry x="410" y="1175" width="120" height="40" as="geometry" />
        </mxCell>
        <mxCell id="KWvbrRZpJoL5nGQ_QKI8-29" value="user wins!" style="rounded=1;whiteSpace=wrap;html=1;fontSize=12;glass=0;strokeWidth=1;shadow=0;" parent="WIyWlLk6GJQsqaUBKTNV-1" vertex="1">
          <mxGeometry x="410" y="1002.5" width="120" height="40" as="geometry" />
        </mxCell>
        <mxCell id="KWvbrRZpJoL5nGQ_QKI8-30" value="computer wins!" style="rounded=1;whiteSpace=wrap;html=1;fontSize=12;glass=0;strokeWidth=1;shadow=0;" parent="WIyWlLk6GJQsqaUBKTNV-1" vertex="1">
          <mxGeometry x="410" y="842.5" width="120" height="40" as="geometry" />
        </mxCell>
        <mxCell id="KWvbrRZpJoL5nGQ_QKI8-33" value="Yes" style="text;html=1;align=center;verticalAlign=middle;resizable=0;points=[];autosize=1;strokeColor=none;fillColor=none;" parent="WIyWlLk6GJQsqaUBKTNV-1" vertex="1">
          <mxGeometry x="295" y="1330" width="40" height="30" as="geometry" />
        </mxCell>
        <mxCell id="KWvbrRZpJoL5nGQ_QKI8-42" value="" style="edgeStyle=orthogonalEdgeStyle;rounded=0;orthogonalLoop=1;jettySize=auto;html=1;" parent="WIyWlLk6GJQsqaUBKTNV-1" source="KWvbrRZpJoL5nGQ_QKI8-37" edge="1">
          <mxGeometry relative="1" as="geometry">
            <mxPoint x="398.75" y="1360" as="targetPoint" />
          </mxGeometry>
        </mxCell>
        <mxCell id="KWvbrRZpJoL5nGQ_QKI8-37" value="&amp;nbsp;user&#39;s choice ==&lt;br&gt;computer&#39;s choice" style="rhombus;whiteSpace=wrap;html=1;shadow=0;fontFamily=Helvetica;fontSize=12;align=center;strokeWidth=1;spacing=6;spacingTop=-4;" parent="WIyWlLk6GJQsqaUBKTNV-1" vertex="1">
          <mxGeometry x="148.75" y="1320" width="140" height="80" as="geometry" />
        </mxCell>
        <mxCell id="KWvbrRZpJoL5nGQ_QKI8-43" value="No" style="text;html=1;align=center;verticalAlign=middle;resizable=0;points=[];autosize=1;strokeColor=none;fillColor=none;" parent="WIyWlLk6GJQsqaUBKTNV-1" vertex="1">
          <mxGeometry x="210" y="1260" width="40" height="30" as="geometry" />
        </mxCell>
      </root>
    </mxGraphModel>
  </diagram>
</mxfile>
